<svg xmlns="http://www.w3.org/2000/svg" width="88.9" height="33" alt="OLX Motors" class="_1a6eed8f"><defs><linearGradient id="a" x1=".5" x2=".5" y2="1" gradientUnits="objectBoundingBox"><stop offset="0" stop-color="#ddd"></stop><stop offset="1" stop-color="#fff"></stop></linearGradient></defs><path stroke="rgba(0,0,0,0)" d="M40 20.5h1v-6.2l3 6.2h.6l2.8-6.2v6.2h1v-8.3h-1L44.1 19l-3-6.8H40zm18.3-4.2A4.1 4.1 0 0 0 54 12a4.1 4.1 0 0 0-4.2 4.3 4.1 4.1 0 0 0 4.2 4.3 4.1 4.1 0 0 0 4.2-4.3zm-7.3 0a3 3 0 0 1 3-3.3 3 3 0 0 1 3.2 3.3 3 3 0 0 1-3 3.3 3 3 0 0 1-3.2-3.3zm8.2-3.3h2.3v7.5h1V13H65v-1h-5.7zm15 3.3A4.1 4.1 0 0 0 70 12a4.1 4.1 0 0 0-4.2 4.3 4.1 4.1 0 0 0 4.2 4.3 4.1 4.1 0 0 0 4.2-4.3zm-7.2 0a3 3 0 0 1 3-3.3 3 3 0 0 1 3 3.3 3 3 0 0 1-3 3.3 3 3 0 0 1-3-3.3zm13.2-1.7c0 1-.6 1.6-1.8 1.6h-1.6V13h1.6c1.2 0 1.8.6 1.8 1.6zM75.7 12v8.4h1V17H78l2 3.4h1.3l-2-3.5a2.4 2.4 0 0 0 2-2.4c0-1.4-1-2.5-3-2.5zm12.7 6c0-3-4.5-1.7-4.5-3.8 0-1 .7-1.4 1.6-1.4a1.5 1.5 0 0 1 1.6 1.2h1.2a2.5 2.5 0 0 0-2.7-2.1c-1.7 0-2.8 1-2.8 2.3 0 3 4.5 1.7 4.5 4 0 .7-.6 1.3-1.7 1.3a1.5 1.5 0 0 1-1.7-1.4h-1.2c0 1.4 1.3 2.4 3 2.4a2.5 2.5 0 0 0 2.7-2.4z"></path><path fill="url(#a)" d="M0 16.5a16.5 16.5 0 1 1 33 0 16.5 16.5 0 0 1-33 0z" opacity=".6"></path><path d="M24.7 13.5a1.1 1.1 0 0 0-1.4-.7l-.6.2-1-2.2-.4-.1a16 16 0 0 0-4.8-.7 12 12 0 0 0-4.3.7l-.3.1-1 2.3h-.5a1.1 1.1 0 0 0-.6 2v.2a4 4 0 0 0-.4 1.5v4a2.1 2.1 0 0 0 0 .6.7.7 0 0 0 .8.5h1.6a.7.7 0 0 0 .8-.5 2.1 2.1 0 0 0 0-.7v-.3a47.1 47.1 0 0 0 8.3 0v.3a2.1 2.1 0 0 0 0 .7.7.7 0 0 0 .8.5h1.6a.7.7 0 0 0 .7-.5 2.1 2.1 0 0 0 .1-.7v-4a3.7 3.7 0 0 0-.4-1.5V15h.3a1.1 1.1 0 0 0 .7-1.5zm-12.2-2.1a11.3 11.3 0 0 1 4-.6 15.2 15.2 0 0 1 4.6.6l.9 1.8a17.6 17.6 0 0 1-4.3.4H17a28.2 28.2 0 0 1-5.4-.3zm-.6 9.3a2.2 2.2 0 0 1 0 .4h-1.7a2.2 2.2 0 0 1 0-.4V20a1 1 0 0 0 .3 0l1.4.2v.4zm11.4 0a2.2 2.2 0 0 1 0 .4h-1.6a2.2 2.2 0 0 1 0-.4v-.4H23a1 1 0 0 0 .4-.2zm.5-6.5l-1.2.4.5 1a3 3 0 0 1 .3 1.2V18l-.1.7c0 .3-.2.7-.5.7-3 .3-4.5.5-6 .5s-3-.2-6.2-.5c-.2 0-.3-.3-.4-.6V18a17 17 0 0 1 0-1 3.2 3.2 0 0 1 .3-1.3l.5-1-1-.2a.3.3 0 0 1-.2-.4.3.3 0 0 1 .4-.3l1.1.4a23.6 23.6 0 0 0 5 .3h1.4a17.9 17.9 0 0 0 4.6-.5h.3l1-.4a.3.3 0 0 1 .4.3.3.3 0 0 1-.2.4z"></path><path d="M12 16a1.2 1.2 0 1 0 1.1 1.2A1.2 1.2 0 0 0 12 16zm0 1.6a.4.4 0 1 1 .3-.4.4.4 0 0 1-.4.4zm9.6-1.6a1.2 1.2 0 1 0 1.2 1.2 1.2 1.2 0 0 0-1.2-1.2zm0 1.6a.4.4 0 1 1 .5-.4.4.4 0 0 1-.5.4zm-7.8.2h6v.8h-6z"></path></svg>