<svg xmlns="http://www.w3.org/2000/svg" width="97.25" height="33" alt="OLX Property" class="_1a6eed8f"><defs><linearGradient id="a" x1=".5" x2=".5" y2="1" gradientUnits="objectBoundingBox"><stop offset="0" stop-color="#ddd"></stop><stop offset="1" stop-color="#fff"></stop></linearGradient></defs><path stroke="rgba(0,0,0,0)" d="M41.1 16.64v-3.07h1.6c1.25 0 1.78.58 1.78 1.55 0 .94-.53 1.52-1.78 1.52zm4.5-1.52c0-1.37-.93-2.45-2.9-2.45H40v8.36h1.1v-3.49h1.6c2.08 0 2.9-1.15 2.9-2.42zm5.82.01c0 .94-.54 1.6-1.77 1.6h-1.6v-3.16h1.6c1.25 0 1.77.61 1.77 1.57zm-4.47-2.46v8.36h1.1v-3.42h1.31l2 3.42h1.3l-2.1-3.5a2.36 2.36 0 0 0 2-2.4c0-1.36-.94-2.45-2.9-2.45zm15.3 4.18a4.12 4.12 0 0 0-4.2-4.28 4.13 4.13 0 0 0-4.2 4.28 4.13 4.13 0 0 0 4.2 4.27 4.12 4.12 0 0 0 4.2-4.27zm-7.3 0a3.05 3.05 0 0 1 3.1-3.33 3.05 3.05 0 0 1 3.07 3.33 3.06 3.06 0 0 1-3.08 3.32 3.06 3.06 0 0 1-3.09-3.32zm9.82-.2v-3.08h1.6c1.25 0 1.78.58 1.78 1.55 0 .94-.53 1.52-1.77 1.52zm4.5-1.53c0-1.36-.93-2.44-2.9-2.44h-2.7v8.35h1.1v-3.49h1.6c2.08 0 2.9-1.15 2.9-2.42zm5.85-2.46h-4.5v8.37h4.5v-.9h-3.4v-2.88h3.04v-.9h-3.04v-2.8h3.4zm6.14 2.48c0 .93-.54 1.6-1.78 1.6h-1.6v-3.17h1.6c1.25 0 1.78.61 1.78 1.57zm-4.48-2.47v8.36h1.1v-3.42h1.32l1.98 3.42h1.3l-2.1-3.5a2.36 2.36 0 0 0 2-2.4c0-1.36-.94-2.45-2.9-2.45zm6.78.9h2.29v7.46h1.1v-7.47h2.27v-.89h-5.66zm9.04 4.3v3.16h1.1v-3.15l2.72-5.2h-1.2l-2.07 4.23-2.07-4.24h-1.2z"></path><path fill="url(#a)" d="M0 16.5a16.5 16.5 0 1 1 33 0 16.5 16.5 0 0 1-33 0z" opacity=".57"></path><path d="M25.03 21.92v-9.35l-4.99-1.66v1.05l4 1.33v8.59h-5V7.85h-8.38v14.08h-.4v1h15.17v-1zm-6.98-11.68v11.68h-6.4V8.84h6.4z"></path><path d="M15.17 10.3h1.61v.8h-1.6zm-2.42 0h1.6v.8h-1.6zm2.42 1.6h1.61v.81h-1.6zm-2.42 0h1.6v.81h-1.6zm2.42 2.42h1.61v.81h-1.6zm-2.42 0h1.6v.81h-1.6zm2.42 1.62h1.61v.8h-1.6zm-2.42 0h1.6v.8h-1.6zm2.42 2.42h1.61v.8h-1.6zm-2.42 0h1.6v.8h-1.6zm8.87-4.04h.8v.81h-.8zm-1.62 0h.8v.81H20zm1.62 1.62h.8v.8h-.8zm-1.62 0h.8v.8H20zm1.62 2.42h.8v.8h-.8zm-1.62 0h.8v.8H20z"></path></svg>